<svg width="38" height="116" viewBox="0 0 38 116" fill="none" xmlns="http://www.w3.org/2000/svg">
<rect x="29.3652" y="1.5018" width="112" height="28" rx="3.5" transform="rotate(86 29.3652 1.5018)" stroke="#373737"/>
<path d="M10.2415 7.56657L21.893 6.75181L22.1508 10.4388C22.2052 11.2156 22.1084 11.896 21.8605 12.48C21.6134 13.0747 21.2403 13.5499 20.7412 13.9056C20.2528 14.2605 19.6575 14.4625 18.9552 14.5117C18.189 14.5652 17.4996 14.4156 16.8868 14.0628C16.2748 13.7207 15.8233 13.2283 15.5325 12.5857L10.7783 15.2438L10.6221 13.0093L15.109 10.6586L15.0097 9.23803L10.381 9.5617L10.2415 7.56657ZM16.7654 9.11526L16.8837 10.8071C16.9231 11.3711 17.1083 11.8019 17.4392 12.0995C17.7701 12.3972 18.2069 12.527 18.7496 12.4891C19.3029 12.4504 19.7227 12.2606 20.0089 11.9198C20.3058 11.5783 20.4346 11.1255 20.3951 10.5616L20.2768 8.86971L16.7654 9.11526ZM10.798 15.5249L22.6549 17.647L22.8346 20.2167L11.3895 23.9842L11.2466 21.9412L14.0271 21.1052L13.8106 18.0088L10.9408 17.5679L10.798 15.5249ZM15.4643 18.262L15.6295 20.6243L18.7087 19.7032C19.2219 19.5497 19.683 19.4159 20.0921 19.3018C20.5118 19.1869 20.8162 19.1068 21.0055 19.0615C20.8118 19.0429 20.4991 19.006 20.0675 18.9506C19.6473 18.9052 19.1774 18.8364 18.6577 18.7445L15.4643 18.262ZM11.446 24.792L23.0975 23.9773L23.3554 27.6642C23.4097 28.441 23.3129 29.1214 23.065 29.7055C22.8179 30.3002 22.4448 30.7753 21.9458 31.131C21.4573 31.486 20.862 31.688 20.1597 31.7371C19.3936 31.7907 18.7041 31.6411 18.0913 31.2883C17.4793 30.9461 17.0279 30.4538 16.737 29.8112L11.9828 32.4693L11.8266 30.2347L16.3135 27.884L16.2142 26.4635L11.5855 26.7871L11.446 24.792ZM17.9699 26.3407L18.0882 28.0326C18.1277 28.5965 18.3128 29.0273 18.6437 29.325C18.9746 29.6226 19.4114 29.7524 19.9541 29.7145C20.5074 29.6758 20.9272 29.4861 21.2135 29.1453C21.5104 28.8037 21.6391 28.351 21.5996 27.787L21.4813 26.0951L17.9699 26.3407ZM12.0616 33.5963L23.7132 32.7815L24.202 39.7724L22.4623 39.8941L22.1107 34.8664L19.0781 35.0784L19.3906 39.5475L17.6668 39.6681L17.3543 35.199L13.9387 35.4378L14.2903 40.4655L12.5505 40.5872L12.0616 33.5963ZM13.2539 50.6461L24.9054 49.8314L25.1767 53.7099C25.231 54.4867 25.1292 55.1728 24.8715 55.7682C24.6145 56.3743 24.2258 56.8559 23.7054 57.2131C23.1957 57.5695 22.5791 57.773 21.8555 57.8236C21.1426 57.8734 20.5033 57.7524 19.9375 57.4605C19.3725 57.1792 18.921 56.7617 18.5828 56.2079C18.2447 55.6542 18.0485 54.9889 17.9942 54.2121L17.8625 52.3287L13.3934 52.6413L13.2539 50.6461ZM19.6661 52.2026L19.7978 54.086C19.8365 54.6393 20.027 55.0698 20.3693 55.3773C20.7229 55.6947 21.1711 55.8345 21.7138 55.7965C22.2671 55.7578 22.6915 55.5571 22.9869 55.1943C23.283 54.8421 23.4117 54.3893 23.3731 53.836L23.2414 51.9526L19.6661 52.2026ZM13.8093 58.5885L25.6662 60.7106L25.8459 63.2803L14.4008 67.0478L14.2579 65.0048L17.0384 64.1688L16.8219 61.0724L13.9521 60.6315L13.8093 58.5885ZM18.4756 61.3256L18.6408 63.6879L21.72 62.7668C22.2332 62.6133 22.6943 62.4795 23.1034 62.3654C23.5231 62.2505 23.8275 62.1704 24.0168 62.1251C23.8231 62.1065 23.5104 62.0696 23.0788 62.0142C22.6586 61.9687 22.1887 61.9 21.669 61.8081L18.4756 61.3256ZM14.5522 71.5059C14.5001 70.761 14.5926 70.097 14.8299 69.5136C15.0785 68.9402 15.4474 68.4814 15.9365 68.1371C16.4371 67.8027 17.0385 67.6109 17.7408 67.5618L22.8164 67.2069C23.5293 67.1571 24.1516 67.2632 24.6832 67.5255C25.2155 67.7983 25.6393 68.2018 25.9547 68.7357C26.2814 69.2796 26.4708 69.9239 26.5229 70.6688C26.5758 71.4243 26.4775 72.0834 26.2281 72.6462C25.9902 73.2188 25.6266 73.6773 25.1374 74.0216C24.6483 74.3659 24.0472 74.563 23.3343 74.6128L23.1937 72.6017C23.747 72.5631 24.1569 72.3847 24.4233 72.0667C24.6905 71.7593 24.8052 71.3342 24.7672 70.7916C24.7293 70.2489 24.5562 69.8386 24.2481 69.5608C23.94 69.2829 23.5146 69.163 22.9719 69.2009L17.8803 69.557C17.3376 69.5949 16.9277 69.7733 16.6506 70.092C16.3842 70.4101 16.2699 70.8404 16.3079 71.3831C16.3458 71.9258 16.5185 72.3307 16.8259 72.5979C17.1446 72.875 17.5754 72.9946 18.118 72.9567L18.2587 74.9678C17.567 75.0161 16.9497 74.9042 16.4067 74.6321C15.8638 74.36 15.4293 73.9573 15.1033 73.4241C14.7887 72.9008 14.605 72.2614 14.5522 71.5059ZM15.0596 76.4683L26.7111 75.6536L26.8506 77.6487L22.1421 77.9779L22.2392 79.3666L27.1006 81.224L27.2524 83.3947L21.4841 81.1836L15.6098 84.3371L15.4547 82.1185L20.4174 79.4619L20.3226 78.1052L15.1991 78.4634L15.0596 76.4683ZM15.6161 84.4266L27.473 86.5487L27.6527 89.1184L16.2076 92.886L16.0647 90.843L18.8452 90.007L18.6287 86.9105L15.7589 86.4696L15.6161 84.4266ZM20.2824 87.1638L20.4475 89.526L23.5268 88.605C24.04 88.4515 24.5011 88.3177 24.9102 88.2035C25.3298 88.0886 25.6343 88.0085 25.8236 87.9632C25.6299 87.9447 25.3172 87.9077 24.8856 87.8524C24.4654 87.8069 23.9955 87.7382 23.4758 87.6462L20.2824 87.1638ZM16.3589 97.344C16.3069 96.5992 16.3994 95.9351 16.6366 95.3518C16.8852 94.7784 17.2541 94.3196 17.7433 93.9753C18.2439 93.6409 18.8453 93.4491 19.5476 93.4L24.6232 93.0451C25.3361 92.9952 25.9584 93.1014 26.49 93.3636C27.0223 93.6365 27.4461 94.0399 27.7615 94.5739C28.0882 95.1178 28.2776 95.7621 28.3297 96.507C28.3825 97.2624 28.2843 97.9216 28.0349 98.4843C27.797 99.057 27.4334 99.5155 26.9442 99.8598C26.455 100.204 25.854 100.401 25.1411 100.451L25.0004 98.4399C25.5537 98.4012 25.9636 98.2229 26.2301 97.9048C26.4973 97.5974 26.6119 97.1724 26.574 96.6297C26.536 96.0871 26.363 95.6768 26.0549 95.3989C25.7467 95.1211 25.3213 95.0011 24.7787 95.0391L19.6871 95.3951C19.1444 95.4331 18.7345 95.6114 18.4574 95.9302C18.1803 96.249 18.0607 96.6797 18.0987 97.2224C18.1366 97.7651 18.3146 98.1696 18.6327 98.4361C18.9514 98.7132 19.3821 98.8328 19.9248 98.7948L21.1059 98.7122L20.9675 96.7331L22.6913 96.6125L22.9704 100.603L20.0655 100.806C19.3632 100.855 18.7405 100.744 18.1976 100.471C17.6652 100.199 17.2361 99.7955 16.9101 99.2623C16.5955 98.7389 16.4118 98.0995 16.3589 97.344ZM16.8797 102.498L28.5313 101.683L29.0201 108.674L27.2804 108.796L26.9288 103.768L23.8962 103.98L24.2087 108.449L22.4849 108.57L22.1724 104.101L18.7568 104.34L19.1083 109.367L17.3686 109.489L16.8797 102.498Z" fill="#373737"/>
</svg>
